HIERARCHY
ROOT Hips
{
	OFFSET 0.00000 0.00000 0.00000
	CHANNELS 6 Xposition Yposition Zposition Zrotation Yrotation Xrotation 
	JOINT LHipJoint
	{
		OFFSET 0 0 0
		CHANNELS 3 Zrotation Yrotation Xrotation
		JOINT LeftUpLeg
		{
			OFFSET 1.58895 -1.83665 0.71753
			CHANNELS 3 Zrotation Yrotation Xrotation
			JOINT LeftLeg
			{
				OFFSET 2.50528 -6.88321 0.00000
				CHANNELS 3 Zrotation Yrotation Xrotation
				JOINT LeftFoot
				{
					OFFSET 2.63244 -7.23257 0.00000
					CHANNELS 3 Zrotation Yrotation Xrotation
					JOINT LeftToeBase
					{
						OFFSET 0.23691 -0.65090 1.72750
						CHANNELS 3 Zrotation Yrotation Xrotation
						End Site
						{
							OFFSET 0.00000 -0.00000 0.92561
						}
					}
				}
			}
		}
	}
	JOINT RHipJoint
	{
		OFFSET 0 0 0
		CHANNELS 3 Zrotation Yrotation Xrotation
		JOINT RightUpLeg
		{
			OFFSET -1.51435 -1.83665 0.71753
			CHANNELS 3 Zrotation Yrotation Xrotation
			JOINT RightLeg
			{
				OFFSET -2.54551 -6.99375 0.00000
				CHANNELS 3 Zrotation Yrotation Xrotation
				JOINT RightFoot
				{
					OFFSET -2.66027 -7.30903 0.00000
					CHANNELS 3 Zrotation Yrotation Xrotation
					JOINT RightToeBase
					{
						OFFSET -0.22981 -0.63138 2.03959
						CHANNELS 3 Zrotation Yrotation Xrotation
						End Site
						{
							OFFSET -0.00000 -0.00000 1.07060
						}
					}
				}
			}
		}
	}
	JOINT LowerBack
	{
		OFFSET 0 0 0
		CHANNELS 3 Zrotation Yrotation Xrotation
		JOINT Spine
		{
			OFFSET -0.02651 1.86275 -0.11152
			CHANNELS 3 Zrotation Yrotation Xrotation
			JOINT Spine1
			{
				OFFSET 0.01019 1.86224 0.04087
				CHANNELS 3 Zrotation Yrotation Xrotation
				JOINT Neck
				{
					OFFSET 0 0 0
					CHANNELS 3 Zrotation Yrotation Xrotation
					JOINT Neck1
					{
						OFFSET -0.01926 1.80512 0.08867
						CHANNELS 3 Zrotation Yrotation Xrotation
						JOINT Head
						{
							OFFSET 0.05516 1.76451 -0.38475
							CHANNELS 3 Zrotation Yrotation Xrotation
							End Site
							{
								OFFSET 0.01592 1.82587 -0.14001
							}
						}
					}
				}
				JOINT LeftShoulder
				{
					OFFSET 0 0 0
					CHANNELS 3 Zrotation Yrotation Xrotation
					JOINT LeftArm
					{
						OFFSET 3.47116 1.51376 0.14491
						CHANNELS 3 Zrotation Yrotation Xrotation
						JOINT LeftForeArm
						{
							OFFSET 4.78095 -0.00000 0.00000
							CHANNELS 3 Zrotation Yrotation Xrotation
							JOINT LeftHand
							{
								OFFSET 3.58615 -0.00000 -0.00000
								CHANNELS 3 Zrotation Yrotation Xrotation
								JOINT LeftFingerBase
								{
									OFFSET 0 0 0
									CHANNELS 3 Zrotation Yrotation Xrotation
									JOINT LeftHandIndex1
									{
										OFFSET 0.65981 -0.00000 0.00000
										CHANNELS 3 Zrotation Yrotation Xrotation
										End Site
										{
											OFFSET 0.53196 -0.00000 0.00000
										}
									}
								}
								JOINT LThumb
								{
									OFFSET 0 0 0
									CHANNELS 3 Zrotation Yrotation Xrotation
									End Site
									{
										OFFSET 0.54008 -0.00000 0.54008
									}
								}
							}
						}
					}
				}
				JOINT RightShoulder
				{
					OFFSET 0 0 0
					CHANNELS 3 Zrotation Yrotation Xrotation
					JOINT RightArm
					{
						OFFSET -3.31725 1.61216 0.35156
						CHANNELS 3 Zrotation Yrotation Xrotation
						JOINT RightForeArm
						{
							OFFSET -4.48913 -0.00000 0.00000
							CHANNELS 3 Zrotation Yrotation Xrotation
							JOINT RightHand
							{
								OFFSET -3.70510 -0.00000 0.00000
								CHANNELS 3 Zrotation Yrotation Xrotation
								JOINT RightFingerBase
								{
									OFFSET 0 0 0
									CHANNELS 3 Zrotation Yrotation Xrotation
									JOINT RightHandIndex1
									{
										OFFSET -0.44914 -0.00000 0.00000
										CHANNELS 3 Zrotation Yrotation Xrotation
										End Site
										{
											OFFSET -0.36211 -0.00000 0.00000
										}
									}
								}
								JOINT RThumb
								{
									OFFSET 0 0 0
									CHANNELS 3 Zrotation Yrotation Xrotation
									End Site
									{
										OFFSET -0.36763 -0.00000 0.36763
									}
								}
							}
						}
					}
				}
			}
		}
	}
}
MOTION
Frames: 15
Frame Time: .0083333
-0.905 18.6751 6.1179 0 0 0 0 0 0 -21 0 0 0 0 0 0 0 0 0 0 0 0 0 0 21 0 0 0 0 0 0 0 0 0 0 0 0 0 0 0 0 0 0 0 0 0 0 -16 0 0 21 0 0 11 0 0 0 -8 0 0 0 0 0 0 0 0 0 0 0 0 0 0 0 0 0 0 0 0 8 0 0 0 0 0 0 0 0 0 0 0 0 0 0 0 0 0
-0.9050 18.6751 6.1179 -4.3995 -4.1287 1.1962 0.0000 0.0000 0.0000 -10.8936 -7.1218 -1.7651 1.5192 7.7833 22.0577 1.9098 6.2507 -28.9624 7.8418 -16.0016 -51.9908 0.0000 0.0000 0.0000 0.0000 0.0000 0.0000 0.0000 0.0000 0.0000 -0.0000 -0.0000 0.0000 -0.0000 -0.0000 0.0000 1.7591 1.5098 4.4792 1.0639 2.1963 -2.9826 -0.0843 1.0413 -5.5828 1.9986 -0.6239 -9.9466 0.2024 -1.3566 25.9089 -0.4243 -0.4149 9.8260 0.0000 0.0000 0.0000 -91.5594 15.1953 24.0526 20.7865 -31.5783 -5.9377 -0.0000 -0.0000 13.8494 4.8347 -24.7744 -2.0299 -7.1250 0.0000 -0.0000 -15.0180 5.8246 13.9144 0.0000 0.0000 0.0000 91.0983 -21.2979 22.4836 -24.2486 35.4260 -7.8502 0.0000 0.0000 17.6925 -11.1844 -29.4559 5.5535 7.1250 -0.0000 -0.0000 22.2501 -58.4958 -7.5836
-0.9050 18.6747 6.1179 -4.4375 -4.1194 1.1956 0.0000 0.0000 0.0000 -10.8449 -7.0927 -1.7846 1.5218 7.7894 22.0763 1.9072 6.2509 -28.9458 7.8585 -16.0142 -52.0515 0.0000 0.0000 0.0000 0.0000 0.0000 0.0000 0.0000 0.0000 0.0000 -0.0000 -0.0000 0.0000 -0.0000 -0.0000 0.0000 1.8066 1.5045 4.4947 1.0747 2.1934 -2.9788 -0.0998 1.0382 -5.5864 1.9831 -0.6144 -9.9531 0.2116 -1.3422 25.8924 -0.4168 -0.4089 9.8216 0.0000 -0.0000 0.0000 -91.5693 15.1633 24.0719 20.7754 -31.5653 -5.9319 -0.0000 -0.0000 13.8420 4.8763 -24.7639 -2.0467 -7.1250 0.0000 -0.0000 -14.9930 5.8313 13.8875 0.0000 -0.0000 0.0000 91.0594 -21.2829 22.5547 -24.2480 35.4254 -7.8498 0.0000 0.0000 17.6677 -12.1496 -29.3335 6.0206 7.1250 -0.0000 -0.0000 21.1680 -58.5958 -7.2439
-0.9053 18.6746 6.1183 -4.4646 -4.1101 1.1992 0.0000 0.0000 0.0000 -10.8082 -7.0694 -1.8081 1.5245 7.7962 22.0967 1.9073 6.2561 -28.9492 7.8845 -16.0337 -52.1457 0.0000 0.0000 0.0000 0.0000 0.0000 0.0000 0.0000 0.0000 0.0000 -0.0000 -0.0000 0.0000 -0.0000 -0.0000 0.0000 1.8242 1.5048 4.4825 1.0866 2.1953 -2.9744 -0.0970 1.0388 -5.5747 1.9533 -0.6136 -9.9542 0.2346 -1.3409 25.8959 -0.4036 -0.4085 9.8234 0.0000 -0.0000 0.0000 -91.6005 15.0756 24.0046 20.7021 -31.4790 -5.8936 -0.0000 -0.0000 13.9371 4.8788 -24.8404 -2.0536 -7.1250 0.0000 -0.0000 -14.9913 5.7571 13.9079 0.0000 -0.0000 0.0000 91.0417 -21.2705 22.5795 -24.2406 35.4177 -7.8456 0.0000 0.0000 17.6585 -12.1663 -29.3056 6.0239 7.1250 -0.0000 -0.0000 21.1304 -58.5736 -7.2189
-0.9047 18.6744 6.1189 -4.4774 -4.0999 1.2088 0.0000 0.0000 0.0000 -10.8057 -7.1509 -1.7963 1.5265 7.8010 22.1113 1.9127 6.2539 -28.9835 7.8523 -16.0095 -52.0289 0.0000 0.0000 0.0000 0.0000 0.0000 0.0000 0.0000 0.0000 0.0000 -0.0000 -0.0000 0.0000 -0.0000 -0.0000 0.0000 1.8322 1.5044 4.4657 1.0928 2.1953 -2.9810 -0.0947 1.0386 -5.5720 1.9602 -0.6182 -9.9468 0.2191 -1.3447 25.9075 -0.4106 -0.4112 9.8259 -0.0000 -0.0000 0.0000 -91.6462 14.9352 23.8319 20.5476 -31.2965 -5.8131 -0.0000 -0.0000 14.1003 4.8924 -24.9664 -2.0691 -7.1250 0.0000 -0.0000 -14.9829 5.6343 13.9358 -0.0000 -0.0000 0.0000 91.0412 -21.2760 22.5861 -24.2297 35.4062 -7.8392 0.0000 0.0000 17.6587 -12.2085 -29.3388 6.0514 7.1250 -0.0000 -0.0000 21.1110 -58.6138 -7.2325
-0.9040 18.6746 6.1184 -4.5029 -4.0974 1.2250 0.0000 0.0000 0.0000 -10.7880 -7.2166 -1.7968 1.5275 7.8033 22.1184 1.9164 6.2815 -29.0229 7.8423 -16.0020 -51.9927 0.0000 0.0000 0.0000 0.0000 0.0000 0.0000 0.0000 0.0000 0.0000 -0.0000 -0.0000 0.0000 -0.0000 -0.0000 0.0000 1.8525 1.5082 4.4714 1.1057 2.2028 -2.9910 -0.0936 1.0417 -5.5854 1.9711 -0.6223 -9.9341 0.2061 -1.3487 25.8848 -0.4173 -0.4137 9.8151 0.0000 0.0000 0.0000 -91.6786 14.8675 23.7611 20.4771 -31.2128 -5.7766 -0.0000 -0.0000 14.1828 4.9353 -25.0283 -2.0922 -7.1250 0.0000 -0.0000 -14.9571 5.5708 13.9287 0.0000 0.0000 0.0000 91.0191 -21.2639 22.6137 -24.2126 35.3883 -7.8293 0.0000 0.0000 17.6011 -12.2888 -29.4013 6.1039 7.1250 -0.0000 -0.0000 21.0737 -58.6895 -7.2577
-0.9043 18.6752 6.1185 -4.5000 -4.1029 1.2409 0.0000 0.0000 0.0000 -10.7883 -7.2070 -1.8165 1.5276 7.8036 22.1192 1.9188 6.3219 -29.0618 7.8745 -16.0261 -52.1093 0.0000 0.0000 0.0000 0.0000 0.0000 0.0000 0.0000 0.0000 0.0000 -0.0000 -0.0000 0.0000 -0.0000 -0.0000 0.0000 1.8369 1.5104 4.4721 1.1089 2.2050 -3.0008 -0.0819 1.0433 -5.5968 1.9330 -0.6231 -9.9298 0.2498 -1.3533 25.8822 -0.3960 -0.4147 9.8140 0.0000 0.0000 0.0000 -91.6821 14.8818 23.8009 20.4951 -31.2342 -5.7859 -0.0000 -0.0000 14.1680 4.9760 -25.0734 -2.1131 -7.1250 0.0000 -0.0000 -14.9327 5.5238 13.9181 0.0000 0.0000 0.0000 91.0087 -21.2515 22.6202 -24.1982 35.3732 -7.8210 0.0000 0.0000 17.5526 -10.7486 -29.6830 5.3703 7.1250 -0.0000 -0.0000 22.8667 -58.6078 -7.8703
-0.9044 18.6757 6.1193 -4.4702 -4.1047 1.2489 0.0000 0.0000 0.0000 -10.8140 -7.1685 -1.8349 1.5265 7.8011 22.1116 1.9165 6.3166 -29.0436 7.8869 -16.0354 -52.1543 0.0000 0.0000 0.0000 0.0000 0.0000 0.0000 0.0000 0.0000 0.0000 -0.0000 -0.0000 0.0000 -0.0000 -0.0000 0.0000 1.8114 1.5047 4.4637 1.0917 2.1948 -3.0085 -0.0845 1.0388 -5.6003 1.8915 -0.6190 -9.9426 0.3113 -1.3559 25.9142 -0.3679 -0.4127 9.8288 -0.0000 0.0000 0.0000 -91.6716 14.8898 23.7971 20.4943 -31.2333 -5.7855 -0.0000 -0.0000 14.1736 5.0092 -25.1633 -2.1344 -7.1250 0.0000 -0.0000 -14.9129 5.4341 13.9246 -0.0000 0.0000 0.0000 91.0274 -21.2638 22.6181 -24.2026 35.3778 -7.8235 0.0000 0.0000 17.5770 -7.3846 -30.2192 3.7322 7.1250 -0.0000 -0.0000 26.6912 -58.3510 -9.1346
-0.9041 18.6755 6.1201 -4.4612 -4.1034 1.2345 0.0000 0.0000 0.0000 -10.8293 -7.1763 -1.8068 1.5248 7.7968 22.0984 1.9167 6.3005 -29.0358 7.8659 -16.0197 -52.0783 0.0000 0.0000 0.0000 0.0000 0.0000 0.0000 0.0000 0.0000 0.0000 -0.0000 -0.0000 0.0000 -0.0000 -0.0000 0.0000 1.8312 1.5088 4.4716 1.0678 2.2004 -3.0045 -0.1210 1.0404 -5.5990 1.8799 -0.6234 -9.9397 0.3620 -1.3728 25.9066 -0.3501 -0.4161 9.8260 -0.0000 -0.0000 0.0000 -91.6419 14.8670 23.7956 20.4733 -31.2084 -5.7746 -0.0000 -0.0000 14.1852 5.0085 -25.2250 -2.1390 -7.1250 0.0000 -0.0000 -14.9133 5.3745 13.9424 -0.0000 -0.0000 0.0000 91.0515 -21.2748 22.6099 -24.2132 35.3889 -7.8297 0.0000 0.0000 17.5985 -5.5417 -30.5153 2.8204 7.1250 -0.0000 -0.0000 28.7684 -58.2088 -9.8216
-0.9044 18.6751 6.1208 -4.4531 -4.1112 1.2263 0.0000 0.0000 0.0000 -10.8510 -7.2353 -1.7625 1.5238 7.7944 22.0915 1.9260 6.3418 -29.1197 7.8533 -16.0103 -52.0324 0.0000 0.0000 0.0000 0.0000 0.0000 0.0000 0.0000 0.0000 0.0000 -0.0000 -0.0000 0.0000 -0.0000 -0.0000 0.0000 1.8363 1.5204 4.4713 1.0524 2.2153 -2.9987 -0.1411 1.0473 -5.5916 1.8916 -0.6346 -9.9440 0.3614 -1.3909 25.8985 -0.3543 -0.4235 9.8237 -0.0000 -0.0000 0.0000 -91.6144 14.8449 23.8328 20.4700 -31.2045 -5.7729 -0.0000 -0.0000 14.1725 4.9650 -25.2205 -2.1199 -7.1250 0.0000 -0.0000 -14.9393 5.3826 13.9661 -0.0000 -0.0000 0.0000 91.0820 -21.2637 22.5568 -24.2146 35.3904 -7.8305 0.0000 0.0000 17.6499 -5.4325 -30.5110 2.7642 7.1250 -0.0000 -0.0000 28.8729 -58.1813 -9.8418
-0.9048 18.6751 6.1216 -4.4501 -4.1129 1.2373 0.0000 0.0000 0.0000 -10.8471 -7.2047 -1.7835 1.5236 7.7940 22.0901 1.9210 6.3842 -29.1110 7.8805 -16.0306 -52.1310 0.0000 0.0000 0.0000 0.0000 0.0000 0.0000 0.0000 0.0000 0.0000 -0.0000 -0.0000 0.0000 -0.0000 -0.0000 0.0000 1.8193 1.5187 4.4516 1.0547 2.2115 -2.9980 -0.1283 1.0463 -5.5804 1.9385 -0.6384 -9.9764 0.3036 -1.3922 25.9349 -0.3830 -0.4255 9.8421 0.0000 0.0000 0.0000 -91.6210 14.8376 23.8324 20.4712 -31.2059 -5.7735 -0.0000 -0.0000 14.2020 4.9644 -25.2368 -2.1210 -7.1250 0.0000 -0.0000 -14.9396 5.3669 13.9711 0.0000 0.0000 0.0000 91.1022 -21.2438 22.4989 -24.2113 35.3869 -7.8286 0.0000 0.0000 17.7577 -7.1219 -30.1565 3.5916 7.1250 -0.0000 -0.0000 26.9029 -58.2383 -9.1399
-0.9048 18.6749 6.1225 -4.4614 -4.1057 1.2429 0.0000 0.0000 0.0000 -10.8278 -7.1652 -1.8043 1.5235 7.7938 22.0895 1.9110 6.3628 -29.0336 7.8853 -16.0342 -52.1484 0.0000 0.0000 0.0000 0.0000 0.0000 0.0000 0.0000 0.0000 0.0000 -0.0000 -0.0000 0.0000 -0.0000 -0.0000 0.0000 1.8219 1.5144 4.4373 1.0593 2.2059 -3.0008 -0.1240 1.0435 -5.5754 1.9619 -0.6418 -9.9871 0.2882 -1.3987 25.9591 -0.3933 -0.4277 9.8526 -0.0000 -0.0000 0.0000 -91.6293 14.8443 23.8170 20.4664 -31.2002 -5.7710 -0.0000 -0.0000 14.2485 4.9869 -25.3005 -2.1357 -7.1250 0.0000 -0.0000 -14.9262 5.3033 13.9762 -0.0000 -0.0000 0.0000 91.0973 -21.2522 22.4898 -24.2155 35.3914 -7.8310 0.0000 0.0000 17.7994 -10.4468 -29.5254 5.1918 7.1250 -0.0000 -0.0000 23.0558 -58.3974 -7.8220
-0.9056 18.6743 6.1227 -4.4629 -4.0982 1.2479 0.0000 0.0000 0.0000 -10.8200 -7.1752 -1.8042 1.5237 7.7943 22.0910 1.9166 6.2715 -29.0190 7.8524 -16.0096 -52.0294 0.0000 0.0000 0.0000 0.0000 0.0000 0.0000 0.0000 0.0000 0.0000 -0.0000 -0.0000 0.0000 -0.0000 -0.0000 0.0000 1.8081 1.5134 4.4326 1.0610 2.2037 -3.0081 -0.1143 1.0429 -5.5810 1.9689 -0.6436 -9.9651 0.2861 -1.4013 25.9447 -0.3953 -0.4287 9.8431 -0.0000 -0.0000 0.0000 -91.6171 14.8552 23.8383 20.4631 -31.1962 -5.7693 -0.0000 -0.0000 14.2458 4.9955 -25.3395 -2.1424 -7.1250 0.0000 -0.0000 -14.9212 5.2650 13.9823 -0.0000 -0.0000 0.0000 91.0992 -21.2704 22.4927 -24.2226 35.3988 -7.8351 0.0000 0.0000 17.7975 -12.0643 -29.2176 5.9560 7.1250 -0.0000 -0.0000 21.1715 -58.4695 -7.1803
-0.9070 18.6748 6.1224 -4.4634 -4.0765 1.2740 0.0000 0.0000 0.0000 -10.7908 -7.1314 -1.8569 1.5235 7.7936 22.0890 1.9200 6.1686 -28.9832 7.8531 -16.0101 -52.0317 0.0000 0.0000 0.0000 0.0000 0.0000 0.0000 0.0000 0.0000 0.0000 -0.0000 -0.0000 0.0000 -0.0000 -0.0000 0.0000 1.7892 1.5037 4.4116 1.0643 2.1891 -3.0121 -0.0985 1.0366 -5.5742 1.9950 -0.6390 -9.9710 0.2385 -1.3876 25.9262 -0.4148 -0.4253 9.8370 0.0000 0.0000 0.0000 -91.6110 14.8498 23.9176 20.4622 -31.1952 -5.7688 -0.0000 -0.0000 14.0167 5.3367 -25.1713 -2.2752 -7.1250 0.0000 -0.0000 -14.7171 5.3979 13.7389 0.0000 0.0000 0.0000 91.1031 -21.2557 22.5065 -24.2240 35.4002 -7.8359 0.0000 0.0000 17.7943 -12.1491 -29.2131 5.9980 7.1250 -0.0000 -0.0000 21.0808 -58.4840 -7.1552
-0.9067 18.6760 6.1226 -4.4383 -4.0621 1.2885 0.0000 0.0000 0.0000 -10.8114 -7.1102 -1.8853 1.5216 7.7892 22.0756 1.9129 6.1927 -28.9505 7.8681 -16.0214 -52.0862 0.0000 0.0000 0.0000 0.0000 0.0000 0.0000 0.0000 0.0000 0.0000 -0.0000 -0.0000 0.0000 -0.0000 -0.0000 0.0000 1.7691 1.4968 4.3932 1.0565 2.1775 -3.0107 -0.0937 1.0316 -5.5626 1.9822 -0.6365 -10.0068 0.2225 -1.3781 25.9251 -0.4173 -0.4239 9.8435 0.0000 0.0000 0.0000 -91.6258 14.8542 23.9872 20.4805 -31.2169 -5.7783 -0.0000 -0.0000 13.7630 5.6450 -24.9314 -2.3859 -7.1250 0.0000 -0.0000 -14.5318 5.6030 13.4952 0.0000 0.0000 0.0000 91.0951 -21.2440 22.5318 -24.2297 35.4062 -7.8392 0.0000 0.0000 17.7577 -12.1834 -29.2416 6.0206 7.1250 -0.0000 -0.0000 21.0661 -58.5180 -7.1673
